<svg width="24" height="24" viewBox="0 0 24 24" fill="none" xmlns="http://www.w3.org/2000/svg">
<path d="M23 21.7056L17.2675 15.973C18.7566 14.1518 19.4887 11.828 19.3124 9.48213C19.1362 7.13627 18.065 4.9479 16.3205 3.36966C14.576 1.79142 12.2917 0.944067 9.93992 1.00287C7.58819 1.06167 5.34902 2.02212 3.68557 3.68557C2.02212 5.34902 1.06167 7.58819 1.00287 9.93992C0.944067 12.2917 1.79142 14.576 3.36966 16.3205C4.9479 18.065 7.13627 19.1362 9.48213 19.3124C11.828 19.4887 14.1518 18.7566 15.973 17.2675L21.7056 23L23 21.7056ZM10.1838 17.5073C8.73529 17.5073 7.31936 17.0778 6.115 16.2731C4.91065 15.4684 3.97197 14.3246 3.41767 12.9864C2.86336 11.6482 2.71833 10.1756 3.00091 8.755C3.28349 7.33437 3.981 6.02944 5.00522 5.00522C6.02944 3.981 7.33437 3.28349 8.755 3.00091C10.1756 2.71833 11.6482 2.86336 12.9864 3.41767C14.3246 3.97197 15.4684 4.91065 16.2731 6.115C17.0778 7.31936 17.5073 8.73529 17.5073 10.1838C17.5051 12.1254 16.7329 13.9869 15.3599 15.3599C13.9869 16.7329 12.1254 17.5051 10.1838 17.5073Z" fill="black" stroke="black" stroke-width="0.5"/>
</svg>
