<svg width="22" height="22" viewBox="0 0 22 22" fill="none" xmlns="http://www.w3.org/2000/svg">
<path d="M19.4696 0H14.6296C13.9586 0 13.3151 0.266553 12.8406 0.74102C12.3662 1.21549 12.0996 1.859 12.0996 2.53V7.37C12.0996 7.70224 12.1651 8.03123 12.2922 8.33819C12.4193 8.64514 12.6057 8.92404 12.8406 9.15898C13.0756 9.39391 13.3545 9.58027 13.6614 9.70741C13.9684 9.83456 14.2974 9.9 14.6296 9.9H19.4696C19.8019 9.9 20.1309 9.83456 20.4378 9.70741C20.7448 9.58027 21.0237 9.39391 21.2586 9.15898C21.4935 8.92404 21.6799 8.64514 21.807 8.33819C21.9342 8.03123 21.9996 7.70224 21.9996 7.37V2.53C21.9996 1.859 21.7331 1.21549 21.2586 0.74102C20.7841 0.266553 20.1406 0 19.4696 0ZM19.7996 7.37C19.8012 7.41375 19.7937 7.45735 19.7776 7.49808C19.7616 7.53881 19.7373 7.57581 19.7064 7.60676C19.6754 7.63772 19.6384 7.66197 19.5977 7.67801C19.557 7.69405 19.5134 7.70153 19.4696 7.7H14.6296C14.5859 7.70153 14.5423 7.69405 14.5015 7.67801C14.4608 7.66197 14.4238 7.63772 14.3928 7.60676C14.3619 7.57581 14.3376 7.53881 14.3216 7.49808C14.3056 7.45735 14.2981 7.41375 14.2996 7.37V2.53C14.2981 2.48625 14.3056 2.44265 14.3216 2.40192C14.3376 2.36119 14.3619 2.32419 14.3928 2.29324C14.4238 2.26228 14.4608 2.23803 14.5015 2.22199C14.5423 2.20595 14.5859 2.19846 14.6296 2.2H19.4696C19.5134 2.19846 19.557 2.20595 19.5977 2.22199C19.6384 2.23803 19.6754 2.26228 19.7064 2.29324C19.7373 2.32419 19.7616 2.36119 19.7776 2.40192C19.7937 2.44265 19.8012 2.48625 19.7996 2.53V7.37Z" fill="black"/>
<path d="M7.37001 12.1001H2.53C2.19776 12.1001 1.86877 12.1655 1.56181 12.2927C1.25486 12.4198 0.975953 12.6062 0.741021 12.8411C0.506088 13.076 0.319729 13.355 0.192585 13.6619C0.0654403 13.9689 0 14.2979 0 14.6301V19.4701C0 20.1411 0.266553 20.7846 0.741021 21.2591C1.21549 21.7335 1.859 22.0001 2.53 22.0001H7.37001C7.70225 22.0001 8.03125 21.9347 8.3382 21.8075C8.64515 21.6804 8.92406 21.494 9.15899 21.2591C9.39392 21.0241 9.58028 20.7452 9.70743 20.4383C9.83457 20.1313 9.90001 19.8023 9.90001 19.4701V14.6301C9.90001 14.2979 9.83457 13.9689 9.70743 13.6619C9.58028 13.355 9.39392 13.076 9.15899 12.8411C8.92406 12.6062 8.64515 12.4198 8.3382 12.2927C8.03125 12.1655 7.70225 12.1001 7.37001 12.1001ZM7.70001 19.4701C7.70155 19.5138 7.69406 19.5574 7.67802 19.5982C7.66198 19.6389 7.63773 19.6759 7.60677 19.7069C7.57582 19.7378 7.53882 19.7621 7.49809 19.7781C7.45736 19.7941 7.41376 19.8016 7.37001 19.8001H2.53C2.48625 19.8016 2.44265 19.7941 2.40192 19.7781C2.36119 19.7621 2.32419 19.7378 2.29324 19.7069C2.26228 19.6759 2.23803 19.6389 2.22199 19.5982C2.20595 19.5574 2.19847 19.5138 2.2 19.4701V14.6301C2.19847 14.5863 2.20595 14.5427 2.22199 14.502C2.23803 14.4613 2.26228 14.4243 2.29324 14.3933C2.32419 14.3624 2.36119 14.3381 2.40192 14.3221C2.44265 14.306 2.48625 14.2986 2.53 14.3001H7.37001C7.41376 14.2986 7.45736 14.306 7.49809 14.3221C7.53882 14.3381 7.57582 14.3624 7.60677 14.3933C7.63773 14.4243 7.66198 14.4613 7.67802 14.502C7.69406 14.5427 7.70155 14.5863 7.70001 14.6301V19.4701Z" fill="black"/>
<path d="M7.37001 0H2.53C1.859 0 1.21549 0.266553 0.741021 0.74102C0.266553 1.21549 0 1.859 0 2.53V7.37C0 7.70224 0.0654403 8.03123 0.192585 8.33819C0.319729 8.64514 0.506088 8.92404 0.741021 9.15898C1.21549 9.63344 1.859 9.9 2.53 9.9H7.37001C7.70225 9.9 8.03125 9.83456 8.3382 9.70741C8.64515 9.58027 8.92406 9.39391 9.15899 9.15898C9.39392 8.92404 9.58028 8.64514 9.70743 8.33819C9.83457 8.03123 9.90001 7.70224 9.90001 7.37V2.53C9.90001 2.19776 9.83457 1.86876 9.70743 1.56181C9.58028 1.25486 9.39392 0.975952 9.15899 0.74102C8.92406 0.506087 8.64515 0.319729 8.3382 0.192585C8.03125 0.0654402 7.70225 0 7.37001 0ZM7.70001 7.37C7.70155 7.41375 7.69406 7.45735 7.67802 7.49808C7.66198 7.53881 7.63773 7.57581 7.60677 7.60676C7.57582 7.63772 7.53882 7.66197 7.49809 7.67801C7.45736 7.69405 7.41376 7.70153 7.37001 7.7H2.53C2.48625 7.70153 2.44265 7.69405 2.40192 7.67801C2.36119 7.66197 2.32419 7.63772 2.29324 7.60676C2.26228 7.57581 2.23803 7.53881 2.22199 7.49808C2.20595 7.45735 2.19847 7.41375 2.2 7.37V2.53C2.19847 2.48625 2.20595 2.44265 2.22199 2.40192C2.23803 2.36119 2.26228 2.32419 2.29324 2.29324C2.32419 2.26228 2.36119 2.23803 2.40192 2.22199C2.44265 2.20595 2.48625 2.19846 2.53 2.2H7.37001C7.41376 2.19846 7.45736 2.20595 7.49809 2.22199C7.53882 2.23803 7.57582 2.26228 7.60677 2.29324C7.63773 2.32419 7.66198 2.36119 7.67802 2.40192C7.69406 2.44265 7.70155 2.48625 7.70001 2.53V7.37Z" fill="black"/>
<path d="M17.0496 12.1001C16.0706 12.1001 15.1136 12.3904 14.2995 12.9343C13.4855 13.4782 12.8511 14.2513 12.4764 15.1558C12.1018 16.0603 12.0037 17.0556 12.1947 18.0158C12.3857 18.976 12.8572 19.858 13.5494 20.5503C14.2417 21.2425 15.1237 21.714 16.0839 21.905C17.0441 22.096 18.0394 21.998 18.9439 21.6233C19.8484 21.2486 20.6215 20.6142 21.1654 19.8002C21.7093 18.9861 21.9996 18.0291 21.9996 17.0501C21.9967 15.7382 21.4743 14.4808 20.5466 13.5531C19.6189 12.6255 18.3615 12.103 17.0496 12.1001ZM17.0496 19.8001C16.5057 19.8001 15.974 19.6388 15.5218 19.3366C15.0696 19.0345 14.7171 18.605 14.5089 18.1025C14.3008 17.6 14.2463 17.047 14.3525 16.5136C14.4586 15.9801 14.7205 15.4901 15.1051 15.1056C15.4897 14.721 15.9797 14.459 16.5131 14.3529C17.0466 14.2468 17.5995 14.3013 18.102 14.5094C18.6045 14.7176 19.034 15.07 19.3362 15.5223C19.6383 15.9745 19.7996 16.5062 19.7996 17.0501C19.7996 17.7794 19.5099 18.4789 18.9942 18.9946C18.4784 19.5104 17.779 19.8001 17.0496 19.8001Z" fill="black"/>
</svg>
