<svg width="24" height="24" viewBox="0 0 24 24" fill="none" xmlns="http://www.w3.org/2000/svg">
<g clip-path="url(#clip0_18208_3697)">
<path d="M23.1838 1.39761C22.9103 0.907716 22.2912 0.73647 21.8044 1.00992L1.23348 12.5441C0.978042 12.6823 0.782694 12.9047 0.677518 13.1751C0.440128 13.7972 0.749641 14.4944 1.37171 14.7318L6.32434 16.6492L15.7278 8.65524C15.8209 8.57109 15.9411 8.52604 16.0644 8.52303C16.1846 8.52303 16.2988 8.56507 16.3919 8.63727C16.6203 8.82055 16.6594 9.15416 16.4791 9.38256L8.34089 19.5673V21.8122V21.8182C8.3439 22.4914 8.89384 23.0354 9.56701 23.0324C9.87355 23.0293 10.1651 22.9122 10.3844 22.6988L13.7653 19.5373L19.8029 21.8664C19.9111 21.9084 20.0253 21.9355 20.1395 21.9475C20.8246 22.0106 21.4287 21.5057 21.4918 20.8205L23.31 1.99264C23.331 1.7853 23.286 1.57788 23.1838 1.39761Z" fill="white"/>
</g>
<defs>
<clipPath id="clip0_18208_3697">
<rect width="23.913" height="23.913" fill="white"/>
</clipPath>
</defs>
</svg>
