<svg width="160" height="56" viewBox="0 0 160 56" fill="none" xmlns="http://www.w3.org/2000/svg">
<path d="M77.38 37.504C76.2413 37.504 75.14 37.2987 74.076 36.888C73.0307 36.4773 72.088 35.8707 71.248 35.068C70.4267 34.2467 69.7733 33.2293 69.288 32.016C68.8027 30.8027 68.56 29.384 68.56 27.76C68.56 26.1547 68.8027 24.7453 69.288 23.532C69.7733 22.3187 70.436 21.3107 71.276 20.508C72.116 19.6867 73.0587 19.0707 74.104 18.66C75.168 18.2307 76.26 18.016 77.38 18.016C78.5187 18.016 79.6107 18.2213 80.656 18.632C81.72 19.024 82.6627 19.6307 83.484 20.452C84.324 21.2547 84.9867 22.272 85.472 23.504C85.9573 24.7173 86.2 26.136 86.2 27.76C86.2 29.3467 85.9573 30.756 85.472 31.988C84.9867 33.2013 84.324 34.2187 83.484 35.04C82.6627 35.8427 81.72 36.4587 80.656 36.888C79.6107 37.2987 78.5187 37.504 77.38 37.504ZM77.38 36.916C78.4067 36.916 79.2373 36.6453 79.872 36.104C80.5067 35.544 80.964 34.6013 81.244 33.276C81.5427 31.932 81.692 30.0933 81.692 27.76C81.692 25.408 81.5427 23.5693 81.244 22.244C80.964 20.9 80.5067 19.9573 79.872 19.416C79.2373 18.856 78.4067 18.576 77.38 18.576C76.372 18.576 75.5507 18.856 74.916 19.416C74.2813 19.9573 73.8147 20.9 73.516 22.244C73.236 23.5693 73.096 25.408 73.096 27.76C73.096 30.0933 73.236 31.932 73.516 33.276C73.8147 34.6013 74.2813 35.544 74.916 36.104C75.5507 36.6453 76.372 36.916 77.38 36.916ZM88.6377 37V36.72L88.9737 36.608C89.6457 36.384 89.9817 35.9173 89.9817 35.208V20.228C89.9817 19.8547 89.9071 19.5747 89.7577 19.388C89.6084 19.1827 89.3471 19.0333 88.9737 18.94L88.6097 18.856V18.576L93.7337 17.372L94.0697 17.624L93.9578 21.544V31.12C93.9578 31.8107 93.9578 32.5013 93.9578 33.192C93.9764 33.864 93.9858 34.536 93.9858 35.208C93.9858 35.5813 94.0604 35.8893 94.2098 36.132C94.3591 36.356 94.6111 36.524 94.9657 36.636L95.3298 36.72V37H88.6377ZM103.901 37.42C102.8 37.42 101.811 37.1773 100.933 36.692C100.056 36.188 99.3561 35.4227 98.8335 34.396C98.3295 33.3507 98.0775 32.016 98.0775 30.392C98.0775 28.7493 98.3668 27.396 98.9455 26.332C99.5241 25.2493 100.289 24.4467 101.241 23.924C102.193 23.3827 103.229 23.112 104.349 23.112C105.003 23.112 105.628 23.1773 106.225 23.308C106.823 23.4387 107.355 23.6347 107.821 23.896V20.256C107.821 19.864 107.756 19.5747 107.625 19.388C107.513 19.2013 107.261 19.0707 106.869 18.996L106.337 18.884V18.604L111.433 17.372L111.741 17.624L111.629 21.544V35.236C111.629 35.6093 111.695 35.9173 111.825 36.16C111.956 36.384 112.199 36.5427 112.553 36.636L112.805 36.72V37L108.017 37.308L107.765 36.3C107.261 36.636 106.683 36.9067 106.029 37.112C105.395 37.3173 104.685 37.42 103.901 37.42ZM105.525 36.384C106.309 36.384 107.028 36.1507 107.681 35.684V24.568C106.991 24.12 106.281 23.896 105.553 23.896C104.657 23.896 103.892 24.4187 103.257 25.464C102.623 26.4907 102.305 28.1147 102.305 30.336C102.305 32.5573 102.604 34.1253 103.201 35.04C103.799 35.936 104.573 36.384 105.525 36.384ZM122.472 23.112C123.685 23.112 124.721 23.364 125.58 23.868C126.438 24.3533 127.092 25.0253 127.54 25.884C128.006 26.724 128.24 27.6853 128.24 28.768C128.24 28.9733 128.23 29.188 128.212 29.412C128.193 29.6173 128.156 29.804 128.1 29.972H119.756C119.774 31.988 120.129 33.444 120.82 34.34C121.529 35.2173 122.574 35.656 123.956 35.656C124.889 35.656 125.645 35.5067 126.224 35.208C126.802 34.9093 127.344 34.4707 127.848 33.892L128.128 34.144C127.549 35.1707 126.774 35.9733 125.804 36.552C124.852 37.1307 123.704 37.42 122.36 37.42C121.034 37.42 119.858 37.14 118.832 36.58C117.805 36.0013 117.002 35.18 116.424 34.116C115.845 33.052 115.556 31.7827 115.556 30.308C115.556 28.7773 115.892 27.48 116.564 26.416C117.236 25.3333 118.094 24.512 119.14 23.952C120.204 23.392 121.314 23.112 122.472 23.112ZM122.388 23.672C121.846 23.672 121.38 23.84 120.988 24.176C120.614 24.4933 120.316 25.072 120.092 25.912C119.886 26.7333 119.774 27.9 119.756 29.412H124.544C124.73 27.3773 124.656 25.912 124.32 25.016C123.984 24.12 123.34 23.672 122.388 23.672ZM131.035 37V36.72L131.455 36.608C131.828 36.496 132.08 36.328 132.211 36.104C132.36 35.88 132.435 35.5907 132.435 35.236V26.472C132.435 26.0613 132.36 25.7627 132.211 25.576C132.08 25.3707 131.828 25.2307 131.455 25.156L131.035 25.044V24.764L135.851 23.14L136.131 23.42L136.383 25.828V26.052C136.644 25.5293 136.98 25.0533 137.391 24.624C137.82 24.176 138.287 23.812 138.791 23.532C139.314 23.252 139.827 23.112 140.331 23.112C141.04 23.112 141.582 23.308 141.955 23.7C142.328 24.092 142.515 24.5867 142.515 25.184C142.515 25.8187 142.328 26.3133 141.955 26.668C141.6 27.004 141.171 27.172 140.667 27.172C139.883 27.172 139.192 26.78 138.595 25.996L138.539 25.94C138.352 25.6787 138.138 25.5387 137.895 25.52C137.652 25.4827 137.428 25.5947 137.223 25.856C137.036 26.024 136.878 26.2293 136.747 26.472C136.635 26.696 136.523 26.9573 136.411 27.256V35.068C136.411 35.8147 136.738 36.2813 137.391 36.468L138.287 36.72V37H131.035ZM151.441 37.42C150.022 37.42 148.79 37.1307 147.745 36.552C146.7 35.9547 145.888 35.1147 145.309 34.032C144.749 32.9493 144.469 31.68 144.469 30.224C144.469 28.768 144.768 27.508 145.365 26.444C145.981 25.38 146.812 24.5587 147.857 23.98C148.921 23.4013 150.116 23.112 151.441 23.112C152.766 23.112 153.952 23.4013 154.997 23.98C156.042 24.54 156.864 25.352 157.461 26.416C158.077 27.48 158.385 28.7493 158.385 30.224C158.385 31.6987 158.096 32.9773 157.517 34.06C156.957 35.124 156.154 35.9547 155.109 36.552C154.082 37.1307 152.86 37.42 151.441 37.42ZM151.441 36.86C152.094 36.86 152.617 36.6733 153.009 36.3C153.401 35.9267 153.681 35.264 153.849 34.312C154.036 33.36 154.129 32.016 154.129 30.28C154.129 28.5253 154.036 27.172 153.849 26.22C153.681 25.268 153.401 24.6053 153.009 24.232C152.617 23.8587 152.094 23.672 151.441 23.672C150.788 23.672 150.256 23.8587 149.845 24.232C149.453 24.6053 149.164 25.268 148.977 26.22C148.809 27.172 148.725 28.5253 148.725 30.28C148.725 32.016 148.809 33.36 148.977 34.312C149.164 35.264 149.453 35.9267 149.845 36.3C150.256 36.6733 150.788 36.86 151.441 36.86Z" fill="black"/>
<path d="M56 28.0033C56 12.5359 43.4623 0 28 0C12.5344 0 0 12.5359 0 28.0033C0 32.5186 1.06885 36.7814 2.96721 40.5556C1.53115 30.8823 6.71147 23.3995 10.1803 20.95C10.9279 20.4221 11.6721 19.9827 12.4098 19.6187C10.7705 18.6481 9.66885 16.861 9.66885 14.8181C9.66885 11.7391 12.1639 9.24043 15.2459 9.24043C18.3246 9.24043 20.823 11.7358 20.823 14.8181C20.823 16.1166 20.377 17.3135 19.6328 18.2612C25.741 18.8547 30.8066 23.488 33.282 26.026C35.0984 27.8852 36.1311 28.2984 36.7967 27.777C37.8689 24.4848 38.2098 20.8385 38.518 19.6384C38.918 18.0742 39.4262 16.9856 40.0066 16.3035C38.541 15.5887 37.5311 14.0902 37.5311 12.3523C37.5311 9.92247 39.4984 7.95503 41.9279 7.95503C44.3574 7.95503 46.3246 9.92247 46.3246 12.3523C46.3246 14.1197 45.2787 15.6412 43.7771 16.3396C48.2229 20.1433 52.9115 34.8139 49.7803 45.6086C53.6656 40.7982 56 34.6729 56 28.0033Z" fill="#068075"/>
<path d="M40.5447 31.0561C39.0824 36.7584 39.7545 41.7557 35.184 37.0765C34.4004 36.2764 32.7512 34.9844 30.5873 33.7646C33.8397 34.0532 35.666 31.1643 36.7512 27.8885C33.2529 33.5843 28.361 32.4136 28.2168 32.3776C20.902 29.2723 10.4168 28.6886 5.30859 44.4052C10.3971 51.429 18.6627 56 28.0004 56C36.4791 56 44.0758 52.2324 49.2102 46.2776C49.8299 37.8635 43.8791 18.0546 40.5447 31.0561Z" fill="#F2B679"/>
</svg>
