<svg width="53" height="40" viewBox="0 0 53 40" fill="none" xmlns="http://www.w3.org/2000/svg">
<g opacity="0.5">
<path d="M45.2124 0.547304C42.5606 -0.281009 39.7038 -0.166258 37.1269 0.872083C35.4463 1.49975 33.9383 2.51652 32.7264 3.83915C31.5144 5.16177 30.633 6.75264 30.1542 8.4815C29.7202 10.0445 29.6048 11.6787 29.8147 13.2871C30.201 16.4249 31.9359 21.8461 39.2123 22.8957C39.3346 22.9137 39.4593 22.9073 39.5791 22.877C39.699 22.8467 39.8117 22.793 39.9108 22.7191C40.0099 22.6451 40.0934 22.5524 40.1566 22.4461C40.2198 22.3398 40.2614 22.2221 40.279 22.0997C40.2966 21.9773 40.2899 21.8527 40.2593 21.7329C40.2287 21.6131 40.1747 21.5005 40.1005 21.4016C40.0263 21.3027 39.9333 21.2195 39.8268 21.1566C39.7204 21.0937 39.6026 21.0524 39.4802 21.0351C33.7433 20.2085 32.0717 16.2405 31.679 13.0578C31.5007 11.6977 31.5968 10.3157 31.9616 8.99344C32.3662 7.54333 33.1083 6.20961 34.1273 5.10135C35.1462 3.9931 36.413 3.1418 37.8241 2.61709C39.9968 1.73907 42.4065 1.64051 44.6436 2.33819C50.9337 4.3327 50.7447 11.5706 50.7328 11.9137C50.7328 23.148 40.2939 38.3733 40.1884 38.5256C40.047 38.7305 39.9926 38.9831 40.0373 39.2281C40.082 39.473 40.2221 39.6902 40.4268 39.8319C40.6315 39.9736 40.8841 40.0283 41.1291 39.984C41.3741 39.9396 41.5915 39.7998 41.7335 39.5953C42.1775 38.9531 52.6118 23.7379 52.6109 11.9513C52.6145 11.8614 52.8797 2.97853 45.2124 0.547304Z" fill="black"/>
<path d="M15.4997 0.547291C12.848 -0.281004 9.99131 -0.166253 7.41455 0.872069C5.73387 1.49957 4.22573 2.51628 3.01368 3.83893C1.80162 5.16157 0.920131 6.75253 0.441401 8.48148C0.00755664 10.0444 -0.108023 11.6786 0.101517 13.2871C0.488235 16.4248 2.2236 21.8461 9.49998 22.8957C9.74641 22.9305 9.99662 22.8662 10.1957 22.7169C10.3948 22.5675 10.5265 22.3453 10.562 22.099C10.5975 21.8526 10.5338 21.6023 10.3849 21.4028C10.236 21.2034 10.0141 21.0711 9.76788 21.035C4.03054 20.2084 2.35894 16.2404 1.96672 13.0577C1.78772 11.6977 1.88366 10.3156 2.24884 8.99338C2.6536 7.54321 3.3959 6.20946 4.41501 5.10121C5.43412 3.99296 6.7011 3.14169 8.11232 2.61703C10.285 1.73893 12.6947 1.64038 14.9318 2.33813C21.2205 4.33264 21.0325 11.5705 21.0206 11.9137C21.0206 23.1479 10.5808 38.3732 10.4753 38.5255C10.3334 38.7304 10.2788 38.9832 10.3233 39.2284C10.3679 39.4736 10.508 39.691 10.7129 39.8329C10.9178 39.9747 11.1706 40.0294 11.4158 39.9848C11.661 39.9403 11.8784 39.8001 12.0203 39.5953C12.4643 38.953 22.8995 23.7379 22.8986 11.9513C22.9022 11.8614 23.166 2.97851 15.4997 0.547291Z" fill="black"/>
</g>
</svg>
