<svg width="53" height="40" viewBox="0 0 53 40" fill="none" xmlns="http://www.w3.org/2000/svg">
<path d="M45.2144 0.547304C42.5625 -0.281009 39.7057 -0.166258 37.1288 0.872083C35.4483 1.49975 33.9403 2.51652 32.7283 3.83915C31.5164 5.16177 30.6349 6.75264 30.1561 8.4815C29.7222 10.0445 29.6067 11.6787 29.8167 13.2871C30.2029 16.4249 31.9378 21.8461 39.2142 22.8957C39.3365 22.9137 39.4612 22.9073 39.5811 22.877C39.701 22.8467 39.8137 22.793 39.9128 22.7191C40.0119 22.6451 40.0954 22.5524 40.1586 22.4461C40.2218 22.3398 40.2633 22.2221 40.281 22.0997C40.2986 21.9773 40.2919 21.8527 40.2613 21.7329C40.2306 21.6131 40.1767 21.5005 40.1024 21.4016C40.0282 21.3027 39.9352 21.2195 39.8288 21.1566C39.7223 21.0937 39.6045 21.0524 39.4821 21.0351C33.7452 20.2085 32.0736 16.2405 31.6809 13.0578C31.5027 11.6977 31.5988 10.3157 31.9635 8.99344C32.3681 7.54333 33.1102 6.20961 34.1292 5.10135C35.1482 3.9931 36.415 3.1418 37.8261 2.61709C39.9988 1.73907 42.4085 1.64051 44.6456 2.33819C50.9357 4.3327 50.7467 11.5706 50.7348 11.9137C50.7348 23.148 40.2959 38.3733 40.1904 38.5256C40.0489 38.7305 39.9946 38.9831 40.0393 39.2281C40.084 39.473 40.224 39.6902 40.4288 39.8319C40.6335 39.9736 40.8861 40.0283 41.1311 39.984C41.376 39.9396 41.5934 39.7998 41.7354 39.5953C42.1795 38.9531 52.6137 23.7379 52.6128 11.9513C52.6165 11.8614 52.8816 2.97853 45.2144 0.547304Z" fill="white"/>
<path d="M15.4997 0.547291C12.848 -0.281004 9.99131 -0.166253 7.41455 0.872069C5.73387 1.49957 4.22573 2.51628 3.01368 3.83893C1.80162 5.16157 0.920131 6.75253 0.441401 8.48148C0.00755664 10.0444 -0.108023 11.6786 0.101517 13.2871C0.488235 16.4248 2.2236 21.8461 9.49998 22.8957C9.74641 22.9305 9.99662 22.8662 10.1957 22.7169C10.3948 22.5675 10.5265 22.3453 10.562 22.099C10.5975 21.8526 10.5338 21.6023 10.3849 21.4028C10.236 21.2034 10.0141 21.0711 9.76788 21.035C4.03054 20.2084 2.35894 16.2404 1.96672 13.0577C1.78772 11.6977 1.88366 10.3156 2.24884 8.99338C2.6536 7.54321 3.3959 6.20946 4.41501 5.10121C5.43412 3.99296 6.7011 3.14169 8.11232 2.61703C10.285 1.73893 12.6947 1.64038 14.9318 2.33813C21.2205 4.33264 21.0325 11.5705 21.0206 11.9137C21.0206 23.1479 10.5808 38.3732 10.4753 38.5255C10.3334 38.7304 10.2788 38.9832 10.3233 39.2284C10.3679 39.4736 10.508 39.691 10.7129 39.8329C10.9178 39.9747 11.1706 40.0294 11.4158 39.9848C11.661 39.9403 11.8784 39.8001 12.0203 39.5953C12.4643 38.953 22.8995 23.7379 22.8986 11.9513C22.9022 11.8614 23.166 2.97851 15.4997 0.547291Z" fill="white"/>
</svg>
